HIERARCHY
ROOT Hips
{
	OFFSET -3.958830 18.904000 13.208200
	CHANNELS 6 Xposition Yposition Zposition Zrotation Yrotation Xrotation 
	JOINT LHipJoint
	{
		OFFSET 0.000000 0.000000 0.000000
		CHANNELS 3 Zrotation Yrotation Xrotation
		JOINT LeftUpLeg
		{
			OFFSET 1.800000 -1.400000 0.085000
			CHANNELS 3 Zrotation Yrotation Xrotation
			JOINT LeftLeg
			{
				OFFSET 2.215000 -6.000000 0.000000
				CHANNELS 3 Zrotation Yrotation Xrotation
				JOINT LeftFoot
				{
					OFFSET 2.500000 -6.900000 0.000000
					CHANNELS 3 Zrotation Yrotation Xrotation
					JOINT LeftToeBase
					{
						OFFSET 0.200000 -0.500000 1.950000
						CHANNELS 3 Zrotation Yrotation Xrotation
						End Site
						{
							OFFSET 0.000000 0.000000 0.000000
						}
					}
				}
			}
		}
	}
	JOINT RHipJoint
	{
		OFFSET 0.000000 0.000000 0.000000
		CHANNELS 3 Zrotation Yrotation Xrotation
		JOINT RightUpLeg
		{
			OFFSET -1.800000 -1.400000 0.085000
			CHANNELS 3 Zrotation Yrotation Xrotation
			JOINT RightLeg
			{
				OFFSET -2.215000 -6.000000 0.000000
				CHANNELS 3 Zrotation Yrotation Xrotation
				JOINT RightFoot
				{
					OFFSET -2.500000 -6.900000 0.000000
					CHANNELS 3 Zrotation Yrotation Xrotation
					JOINT RightToeBase
					{
						OFFSET -0.200000 -0.500000 1.950000
						CHANNELS 3 Zrotation Yrotation Xrotation
						End Site
						{
							OFFSET 0.000000 0.000000 0.000000
						}
					}
				}
			}
		}
	}
	JOINT LowerBack
	{
		OFFSET 0.000000 0.000000 0.000000
		CHANNELS 3 Zrotation Yrotation Xrotation
		JOINT Spine
		{
			OFFSET -0.087000 1.940000 -0.288900
			CHANNELS 3 Zrotation Yrotation Xrotation
			JOINT Spine1
			{
				OFFSET 0.000000 1.950000 0.060000
				CHANNELS 3 Zrotation Yrotation Xrotation
				JOINT Neck
				{
					OFFSET 0.000000 0.000000 0.000000
					CHANNELS 3 Zrotation Yrotation Xrotation
					JOINT Neck1
					{
						OFFSET 0.000000 1.600000 0.340000
						CHANNELS 3 Zrotation Yrotation Xrotation
						JOINT Head
						{
							OFFSET 0.000000 1.667000 -0.240000
							CHANNELS 3 Zrotation Yrotation Xrotation
							End Site
							{
								OFFSET 0.000000 0.000000 0.000000
							}
						}
					}
				}
				JOINT LeftShoulder
				{
					OFFSET 0.000000 0.000000 0.000000
					CHANNELS 3 Zrotation Yrotation Xrotation
					JOINT LeftArm
					{
						OFFSET 2.700000 1.550000 -0.730000
						CHANNELS 3 Zrotation Yrotation Xrotation
						JOINT LeftForeArm
						{
							OFFSET 5.450000 0.000000 0.000000
							CHANNELS 3 Zrotation Yrotation Xrotation
							JOINT LeftHand
							{
								OFFSET 3.450000 0.000000 0.000000
								CHANNELS 3 Zrotation Yrotation Xrotation
								JOINT LeftHandIndex1
								{
									OFFSET 0.750000 0.000000 0.000000
									CHANNELS 3 Zrotation Yrotation Xrotation
									End Site
									{
										OFFSET 0.000000 0.000000 0.000000
									}
								}
							}
						}
					}
				}
				JOINT RightShoulder
				{
					OFFSET 0.000000 0.000000 0.000000
					CHANNELS 3 Zrotation Yrotation Xrotation
					JOINT RightArm
					{
						OFFSET -2.700000 1.550000 -0.730000
						CHANNELS 3 Zrotation Yrotation Xrotation
						JOINT RightForeArm
						{
							OFFSET -5.450000 0.000000 0.000000
							CHANNELS 3 Zrotation Yrotation Xrotation
							JOINT RightHand
							{
								OFFSET -3.450000 0.000000 0.000000
								CHANNELS 3 Zrotation Yrotation Xrotation
								JOINT RightHandIndex1
								{
									OFFSET -0.750000 0.000000 0.000000
									CHANNELS 3 Zrotation Yrotation Xrotation
									End Site
									{
										OFFSET 0.000000 0.000000 0.000000
									}
								}
							}
						}
					}
				}
			}
		}
	}
}
MOTION
Frames: 8
Frame Time: 0.016667
2.603100 17.113380 -6.057240 -163.464320 -34.645063 146.820718 -15.852305 14.993628 2.735012 13.068121 -2.641714 4.143856 -4.271757 9.761089 32.553816 0.450329 7.344785 1.967554 0.592570 0.266790 0.761250 17.468694 -9.250907 3.748577 2.837250 6.105317 -24.176434 19.300819 -12.785372 33.371862 -1.014756 -5.473198 2.321156 0.009590 -0.441820 0.134970 -1.510737 -5.999356 -8.021358 2.918328 -3.965685 44.738221 5.487814 -0.806898 9.835496 2.997126 11.121422 -18.058801 19.300252 -27.036632 32.498157 11.583900 -15.362190 -30.051560 -19.146762 -29.286628 10.380081 -11.481328 -6.126223 -9.215645 118.325705 -65.175552 -106.563901 -3.269510 2.597957 0.797770 -0.443310 0.439600 0.007210 11.744592 25.122756 13.397654 23.020581 -10.510691 -23.658684 -69.391759 54.254753 -39.725665 2.118272 -0.944390 0.012850 -0.012310 -0.297720 -0.296190 
2.543170 17.201010 -5.988830 -163.583723 -27.480449 147.058267 -15.793915 14.925597 2.612951 13.048861 -1.675842 6.970839 -2.357649 8.574246 28.246459 0.471939 6.779330 2.159245 0.495120 0.141950 0.683240 17.539781 -9.220586 3.954239 4.044140 6.611497 -23.650509 22.639947 -15.194425 35.454628 -1.249170 -6.306651 2.015832 -0.123430 -0.436650 0.236450 -1.853121 -5.718616 -8.193076 6.332905 -6.056646 46.687460 2.786183 -1.440005 8.627075 2.758335 10.326971 -17.870458 16.476575 -27.543963 35.789270 16.519510 -17.958040 -31.413790 -20.467255 -30.180956 11.119927 -10.813083 -5.752568 -9.059244 122.255665 -68.840698 -116.920290 -3.247613 2.997289 0.789930 -0.453270 0.469110 -0.045650 13.575039 25.435707 12.851261 20.341660 -12.295284 -24.000648 -69.816420 59.588303 -42.050713 2.139923 -0.724500 0.097570 -0.110490 -0.219990 -0.254290 
2.488280 17.311750 -5.912900 -163.168088 -19.586590 148.120638 -15.653707 14.701023 2.400144 12.862050 -1.177356 8.581094 1.411957 6.932443 24.883737 0.322625 6.245344 2.406210 0.188700 -0.153490 0.427900 17.689127 -9.295118 4.215313 4.160680 6.476954 -24.794503 28.451182 -19.914016 38.949280 -1.510152 -7.779698 1.605736 -0.231640 -0.244430 0.056100 -2.295593 -5.124616 -8.337572 8.378073 -8.386193 47.221270 1.979596 -3.633923 11.042138 1.057748 8.069658 -18.986249 11.336935 -28.777161 40.260877 24.634650 -25.087880 -29.188770 -16.915031 -32.727709 12.312833 -14.782155 -5.636137 -11.518696 127.299455 -70.110360 -128.450884 -3.133387 3.131445 0.770330 -0.414130 0.315740 -0.113680 13.658988 28.117811 13.456782 20.705585 -12.926515 -26.688627 -71.257263 63.005663 -45.778482 2.331418 -0.543765 -0.080980 0.089090 -0.030210 -0.206380 
2.360190 17.411520 -5.849290 -162.434251 -9.877383 150.500215 -15.409752 14.322513 2.286786 12.339880 -0.886217 9.609363 4.319789 5.620597 20.990180 0.190136 5.762698 2.609647 0.003090 -0.372380 0.220590 17.923566 -9.512543 4.447335 3.561086 5.640430 -26.582191 34.139483 -25.949233 43.049138 -1.888068 -9.508736 1.120863 -0.316080 -0.095950 -0.007390 -2.842064 -4.246747 -8.443507 12.745708 -11.371095 44.895016 -0.362975 -6.174067 17.126483 -0.266150 5.860470 -22.308762 7.057889 -29.144637 44.557800 30.237390 -31.368380 -27.390700 -12.394936 -38.502615 14.455827 -16.326811 -7.255346 -14.286808 115.339819 -68.116214 -116.904561 -3.390575 2.305634 0.765570 -0.375330 0.197620 -0.130690 11.620459 34.616720 15.328292 22.991547 -14.640299 -33.797005 -75.742640 66.870452 -52.852472 3.332743 -1.442991 -0.177440 0.175860 0.115220 -0.159100 
2.241030 17.464890 -5.817250 -161.561725 4.151931 154.995362 -15.258716 13.967533 2.186596 13.735673 -0.743716 9.288802 2.907776 5.919056 18.358732 0.290866 5.473209 2.726795 0.056060 -0.288600 0.240320 18.108566 -9.368768 4.802106 4.038289 6.985737 -29.241283 38.687596 -31.937259 48.251243 -2.396324 -11.166249 0.705072 -0.322100 -0.161840 -0.039790 -3.061430 -3.888045 -8.601063 14.774811 -12.947233 45.075805 -0.929247 -7.225342 14.576388 -0.623154 5.365161 -22.462966 5.577574 -29.217241 46.471244 31.520040 -33.571350 -26.173510 -11.120642 -37.968460 15.088988 -20.837279 -7.110255 -14.217318 117.273474 -70.518874 -122.302726 -3.142404 2.710585 0.709240 -0.418890 0.228550 -0.085110 10.667157 33.866879 14.806272 21.381754 -9.966345 -30.027528 -68.932913 68.348429 -48.050173 2.661446 -0.774756 -0.097560 0.129440 0.018630 -0.118490 
2.135910 17.491750 -5.849210 -161.228736 18.392900 160.172980 -15.268921 13.665538 2.260408 14.433945 -0.496997 9.498940 -0.088412 6.528948 14.951776 0.239293 5.569368 2.696987 0.049650 -0.377400 0.276970 18.148073 -9.017347 5.121811 3.728118 9.122780 -33.119740 38.141772 -37.194114 56.889006 -2.858967 -13.051990 0.196022 -0.348210 -0.158790 0.032570 -3.023601 -3.858954 -8.792115 14.201109 -12.643301 44.652526 -0.683708 -7.406106 13.096716 -0.374875 5.755366 -22.844190 6.735701 -29.408080 45.833777 27.559010 -33.685090 -23.741270 -11.146628 -37.801303 15.672292 -24.319035 -6.145796 -13.907246 114.586729 -71.049734 -117.663028 -3.323557 2.417474 0.752190 -0.393540 0.216210 -0.111540 9.732468 34.039359 14.104684 20.310918 -7.711997 -29.712206 -71.104688 73.422120 -52.212556 2.247450 -0.072873 -0.116290 0.089950 0.061280 -0.163210 
2.037340 17.478030 -5.894280 -157.081958 31.524835 168.095291 -15.224396 13.183026 2.278274 16.224590 -0.853492 8.930587 -2.383623 6.611968 10.912159 0.261331 5.491066 2.767504 0.149710 -0.260480 0.274930 18.236375 -8.799161 5.429845 3.746209 10.799266 -38.556314 39.760060 -42.693906 62.392227 -3.272342 -14.604932 -0.143117 -0.267590 -0.124910 0.051870 -3.419038 -3.274144 -8.910402 17.888066 -14.502223 41.596527 -1.797184 -8.793347 12.497603 0.302377 5.858813 -20.391326 6.736422 -29.009141 43.009197 24.259300 -33.344490 -21.721600 -11.155475 -36.070537 14.928880 -23.769287 -7.047062 -12.223748 114.133678 -73.649377 -118.232090 -3.287109 2.619661 0.664110 -0.360770 0.175670 -0.026920 8.869083 31.849838 12.055219 18.945810 -2.691788 -28.150407 -68.661945 78.021059 -53.654787 1.785752 0.635060 -0.075110 0.081140 0.000140 -0.117980 
1.957260 17.493720 -5.953440 -151.034773 44.996206 177.301070 -15.333215 13.040652 2.385728 17.396014 -1.015100 9.095929 -3.953132 6.651828 8.162590 0.374680 5.519855 2.759205 0.299540 -0.061290 0.347230 18.172393 -8.401371 5.561516 2.052165 11.558661 -41.515353 44.575697 -46.209029 61.832645 -3.481724 -15.010665 -0.199922 -0.194640 -0.182490 0.115300 -3.345548 -3.647981 -9.058984 19.096804 -15.180749 42.085967 -1.564206 -9.202685 10.278388 1.447183 5.687192 -18.466485 6.440226 -26.428023 41.933438 21.190430 -29.149430 -22.515490 -13.040438 -33.952598 14.928155 -24.065146 -3.487113 -12.543057 124.044160 -74.630220 -129.756794 -3.046090 3.347165 0.628800 -0.364270 0.238600 0.037260 8.756687 30.228070 9.554505 16.087853 0.391424 -26.764641 -59.387081 86.497477 -54.401141 1.714543 0.704302 0.026180 0.012430 -0.107460 -0.098100 
